<svg width="393" height="58" viewBox="0 0 393 58" fill="none" xmlns="http://www.w3.org/2000/svg">
<g filter="url(#filter0_d_78_23)">
<path d="M292.908 2.90395L309.392 44.904C310.165 46.8719 308.714 49 306.6 49H96.0777C94.6949 49 93.4913 48.055 93.1633 46.7117L82.9064 4.71172C82.445 2.82228 83.8758 1 85.8208 1H290.116C291.349 1 292.457 1.75542 292.908 2.90395Z" fill="#B22234"/>
<path d="M292.908 2.90395L309.392 44.904C310.165 46.8719 308.714 49 306.6 49H96.0777C94.6949 49 93.4913 48.055 93.1633 46.7117L82.9064 4.71172C82.445 2.82228 83.8758 1 85.8208 1H290.116C291.349 1 292.457 1.75542 292.908 2.90395Z" stroke="black" stroke-width="2"/>
</g>
<path d="M290.5 26H394.5" stroke="white" stroke-width="2"/>
<path d="M-14 26H90" stroke="white" stroke-width="2"/>
<path d="M132.82 33.2C131.78 33.2 130.82 33.02 129.94 32.66C129.06 32.2867 128.293 31.7667 127.64 31.1C127 30.4333 126.5 29.6467 126.14 28.74C125.78 27.82 125.6 26.82 125.6 25.74C125.6 24.66 125.773 23.6733 126.12 22.78C126.48 21.8867 126.98 21.1133 127.62 20.46C128.273 19.7933 129.04 19.2867 129.92 18.94C130.8 18.58 131.767 18.4 132.82 18.4C134.007 18.4 135.073 18.6333 136.02 19.1C136.98 19.5533 137.76 20.2 138.36 21.04C138.973 21.8667 139.347 22.84 139.48 23.96H136.48C136.307 22.9333 135.887 22.16 135.22 21.64C134.553 21.1067 133.76 20.84 132.84 20.84C132.027 20.84 131.307 21.0333 130.68 21.42C130.067 21.8067 129.587 22.3667 129.24 23.1C128.893 23.82 128.72 24.6933 128.72 25.72C128.72 26.76 128.893 27.66 129.24 28.42C129.6 29.1667 130.093 29.7467 130.72 30.16C131.347 30.56 132.067 30.76 132.88 30.76C133.747 30.76 134.513 30.5 135.18 29.98C135.847 29.46 136.28 28.6867 136.48 27.66H139.52C139.347 28.78 138.953 29.76 138.34 30.6C137.727 31.4267 136.947 32.0667 136 32.52C135.053 32.9733 133.993 33.2 132.82 33.2ZM147.98 33.2C146.913 33.2 145.927 33.02 145.02 32.66C144.127 32.3 143.347 31.7933 142.68 31.14C142.027 30.4733 141.513 29.6867 141.14 28.78C140.78 27.86 140.6 26.8467 140.6 25.74C140.6 24.2733 140.913 22.9933 141.54 21.9C142.167 20.7933 143.033 19.9333 144.14 19.32C145.26 18.7067 146.533 18.4 147.96 18.4C149.413 18.4 150.693 18.7067 151.8 19.32C152.907 19.9333 153.773 20.7933 154.4 21.9C155.04 23.0067 155.36 24.2933 155.36 25.76C155.36 26.8533 155.173 27.86 154.8 28.78C154.44 29.6867 153.927 30.4733 153.26 31.14C152.607 31.7933 151.827 32.3 150.92 32.66C150.027 33.02 149.047 33.2 147.98 33.2ZM147.96 30.76C148.8 30.76 149.54 30.5467 150.18 30.12C150.82 29.6933 151.32 29.1067 151.68 28.36C152.053 27.6 152.24 26.72 152.24 25.72C152.24 24.7333 152.06 23.8733 151.7 23.14C151.34 22.4067 150.84 21.84 150.2 21.44C149.56 21.04 148.813 20.84 147.96 20.84C147.12 20.84 146.38 21.04 145.74 21.44C145.1 21.84 144.6 22.4067 144.24 23.14C143.893 23.86 143.72 24.72 143.72 25.72C143.72 26.7333 143.9 27.62 144.26 28.38C144.62 29.1267 145.12 29.7133 145.76 30.14C146.4 30.5533 147.133 30.76 147.96 30.76ZM156.957 33V18.6H161.757L165.757 32.48H164.017L168.017 18.6H172.837V33H169.797V19.46H170.317L166.417 33H163.237L159.377 19.58H159.877V33H156.957ZM174.828 33V18.6H179.628L183.628 32.48H181.888L185.888 18.6H190.708V33H187.668V19.46H188.188L184.288 33H181.108L177.248 19.58H177.748V33H174.828ZM192.699 33V18.6H195.779V33H192.699ZM194.139 33V30.64H203.419V33H194.139ZM194.139 26.8V24.48H202.719V26.8H194.139ZM194.139 20.96V18.6H203.179V20.96H194.139ZM205.219 33V18.6H209.199L215.599 31.32L214.619 31.56V18.6H217.619V33H213.639L207.239 20.28L208.219 20.04V33H205.219ZM226.433 33.2C225.393 33.2 224.433 33.02 223.553 32.66C222.673 32.2867 221.907 31.7667 221.253 31.1C220.613 30.4333 220.113 29.6467 219.753 28.74C219.393 27.82 219.213 26.82 219.213 25.74C219.213 24.66 219.387 23.6733 219.733 22.78C220.093 21.8867 220.593 21.1133 221.233 20.46C221.887 19.7933 222.653 19.2867 223.533 18.94C224.413 18.58 225.38 18.4 226.433 18.4C227.62 18.4 228.687 18.6333 229.633 19.1C230.593 19.5533 231.373 20.2 231.973 21.04C232.587 21.8667 232.96 22.84 233.093 23.96H230.093C229.92 22.9333 229.5 22.16 228.833 21.64C228.167 21.1067 227.373 20.84 226.453 20.84C225.64 20.84 224.92 21.0333 224.293 21.42C223.68 21.8067 223.2 22.3667 222.853 23.1C222.507 23.82 222.333 24.6933 222.333 25.72C222.333 26.76 222.507 27.66 222.853 28.42C223.213 29.1667 223.707 29.7467 224.333 30.16C224.96 30.56 225.68 30.76 226.493 30.76C227.36 30.76 228.127 30.5 228.793 29.98C229.46 29.46 229.893 28.6867 230.093 27.66H233.133C232.96 28.78 232.567 29.76 231.953 30.6C231.34 31.4267 230.56 32.0667 229.613 32.52C228.667 32.9733 227.607 33.2 226.433 33.2ZM234.613 33V18.6H237.693V33H234.613ZM236.053 33V30.64H245.333V33H236.053ZM236.053 26.8V24.48H244.633V26.8H236.053ZM236.053 20.96V18.6H245.093V20.96H236.053ZM246.916 33V18.6H253.356C254.396 18.6 255.303 18.78 256.076 19.14C256.849 19.4867 257.449 19.98 257.876 20.62C258.303 21.26 258.516 22.0067 258.516 22.86C258.516 23.7 258.303 24.44 257.876 25.08C257.449 25.7067 256.849 26.2 256.076 26.56C255.303 26.9067 254.396 27.08 253.356 27.08H249.356V24.82H253.276C254.009 24.82 254.569 24.6533 254.956 24.32C255.356 23.9733 255.556 23.4933 255.556 22.88C255.556 22.2533 255.363 21.78 254.976 21.46C254.589 21.1267 254.023 20.96 253.276 20.96H249.996V33H246.916ZM255.036 33L249.256 25.52H252.516L259.196 33H255.036Z" fill="white"/>
<defs>
<filter id="filter0_d_78_23" x="77.8188" y="0" width="236.785" height="58" filterUnits="userSpaceOnUse" color-interpolation-filters="sRGB">
<feFlood flood-opacity="0" result="BackgroundImageFix"/>
<feColorMatrix in="SourceAlpha" type="matrix" values="0 0 0 0 0 0 0 0 0 0 0 0 0 0 0 0 0 0 127 0" result="hardAlpha"/>
<feOffset dy="4"/>
<feGaussianBlur stdDeviation="2"/>
<feComposite in2="hardAlpha" operator="out"/>
<feColorMatrix type="matrix" values="0 0 0 0 0 0 0 0 0 0 0 0 0 0 0 0 0 0 0.25 0"/>
<feBlend mode="normal" in2="BackgroundImageFix" result="effect1_dropShadow_78_23"/>
<feBlend mode="normal" in="SourceGraphic" in2="effect1_dropShadow_78_23" result="shape"/>
</filter>
</defs>
</svg>
