<svg width="230" height="236" viewBox="0 0 230 236" fill="none" xmlns="http://www.w3.org/2000/svg">
<path d="M196.992 1.89673H32.883C22.8021 1.89673 17.7616 1.89673 13.9112 3.85861C10.5243 5.58433 7.77061 8.33798 6.04489 11.7249C4.08301 15.5753 4.08301 20.6158 4.08301 30.6967V201.649C4.08301 211.73 4.08301 216.771 6.04489 220.621C7.77061 224.008 10.5243 226.762 13.9112 228.487C17.7616 230.449 22.8021 230.449 32.883 230.449H196.992C207.072 230.449 212.113 230.449 215.963 228.487C219.35 226.762 222.104 224.008 223.83 220.621C225.792 216.771 225.792 211.73 225.792 201.649V30.6967C225.792 20.6158 225.792 15.5753 223.83 11.7249C222.104 8.33798 219.35 5.58433 215.963 3.85861C212.113 1.89673 207.072 1.89673 196.992 1.89673Z" fill="white"/>
<path d="M178.14 232.374C223.922 232.374 228.5 251.195 228.5 166.499" stroke="black" stroke-width="3"/>
<path d="M45.374 2.94391C7.60439 2.94391 1.50021 -13.9952 1.50021 68.1907" stroke="black" stroke-width="3"/>
</svg>
